<?xml version="1.0" encoding="UTF-8"?>
<svg width="64" height="64" viewBox="0 0 64 64" xmlns="http://www.w3.org/2000/svg">
  <defs>
    <linearGradient id="bg" x1="0%" y1="0%" x2="100%" y2="100%">
      <stop offset="0%" style="stop-color:#FFD700"/>
      <stop offset="100%" style="stop-color:#FFA500"/>
    </linearGradient>
    <filter id="shadow" x="-20%" y="-20%" width="140%" height="140%">
      <feDropShadow dx="2" dy="2" stdDeviation="3" flood-opacity="0.3"/>
    </filter>
  </defs>
  
  <!-- Background circle -->
  <circle cx="32" cy="32" r="28" fill="url(#bg)" filter="url(#shadow)"/>
  
  <!-- Key symbol -->
  <rect x="20" y="18" width="24" height="28" rx="3" fill="#1a1a2e" opacity="0.9"/>
  
  <!-- Key highlight -->
  <rect x="22" y="20" width="20" height="4" rx="1" fill="#FFD700" opacity="0.3"/>
  
  <!-- Key slots -->
  <rect x="24" y="28" width="6" height="4" rx="1" fill="#3d4a5c"/>
  <rect x="34" y="28" width="6" height="4" rx="1" fill="#3d4a5c"/>
  <rect x="24" y="36" width="6" height="4" rx="1" fill="#3d4a5c"/>
  <rect x="34" y="36" width="6" height="4" rx="1" fill="#3d4a5c"/>
  
  <!-- Star accent -->
  <polygon points="32,8 33.5,11 37,11 34.5,13.5 35.5,17 32,15 28.5,17 29.5,13.5 27,11 30.5,11" fill="#FFD700" opacity="0.8"/>
</svg>
